<svg xmlns="http://www.w3.org/2000/svg" xmlns:xlink="http://www.w3.org/1999/xlink" style="display:none">

  <symbol id="arrow-left" viewBox="0 0 24 24" fill="none">
    <path d="M2.926 12.1L21.9 12.1" stroke="currentColor" stroke-width="2" stroke-linecap="square"/>
    <path d="M10.35 20.35L2.1 12.1L10.35 3.85" stroke="currentColor" stroke-width="2" stroke-linecap="square"/>
  </symbol>

  <symbol id="arrow-right-bottom" viewBox="0 0 48 48" fill="none">
    <path d="M36.833 37.035L10 10.2" stroke="currentColor" stroke-width="3" stroke-linecap="square"/>
    <path d="M38 14.87L38 38.2L14.667 38.2" stroke="currentColor" stroke-width="3" stroke-linecap="square"/>
  </symbol>

  <symbol id="filter" viewBox="0 0 24 24" fill="none">
    <path d="M3 6h18M7 12h10M10 18h4" stroke="currentColor" stroke-width="2" stroke-linecap="round"/>
  </symbol>

  <symbol id="phone" viewBox="0 0 24 24" fill="none">
    <path d="M22 16.92v3a2 2 0 01-2.18 2 19.79 19.79 0 01-8.63-3.07 19.5 19.5 0 01-6-6 19.79 19.79 0 01-3.07-8.67A2 2 0 014.11 2h3a2 2 0 012 1.72c.127.96.361 1.903.7 2.81a2 2 0 01-.45 2.11L8.09 9.91a16 16 0 006 6l1.27-1.27a2 2 0 012.11-.45c.907.339 1.85.573 2.81.7A2 2 0 0122 16.92z" stroke="currentColor" stroke-width="2" stroke-linecap="round" stroke-linejoin="round"/>
  </symbol>

</svg>
