<?xml version="1.0" encoding="UTF-8"?>
<svg xmlns="http://www.w3.org/2000/svg" width="39" height="40" viewBox="0 0 39 40" fill="none">
  <path fill-rule="evenodd" clip-rule="evenodd" d="M38.2764 8.89529C38.2906 8.94771 38.2978 9.00175 38.2979 9.05605V17.4961C38.2979 17.6044 38.2693 17.7108 38.215 17.8045C38.1607 17.8983 38.0827 17.976 37.9887 18.0299L30.9049 22.1084V30.1922C30.9049 30.4122 30.7879 30.6153 30.5972 30.7261L15.8102 39.2384C15.7764 39.2576 15.7395 39.2699 15.7025 39.283C15.6887 39.2876 15.6756 39.2961 15.661 39.2999C15.5576 39.3271 15.449 39.3271 15.3456 39.2999C15.3287 39.2953 15.3133 39.2861 15.2972 39.2799C15.2633 39.2676 15.2279 39.2568 15.1956 39.2384L0.41177 30.7261C0.317852 30.6721 0.239817 30.5943 0.185527 30.5006C0.131238 30.4069 0.102613 30.3005 0.102539 30.1922L0.102539 4.87221C0.102539 4.81682 0.110231 4.76298 0.124078 4.71067C0.128693 4.69298 0.139462 4.67682 0.145616 4.65913C0.157154 4.62682 0.167924 4.59375 0.184847 4.56375C0.196385 4.54375 0.213308 4.52759 0.227154 4.50913C0.244847 4.48452 0.261001 4.45913 0.28177 4.43759C0.299462 4.4199 0.322539 4.40682 0.342539 4.39144C0.364847 4.37298 0.384847 4.35298 0.410231 4.33836L7.80331 0.0822086C7.89691 0.0283475 8.00301 0 8.111 0C8.21899 0 8.32509 0.0283475 8.41869 0.0822086L15.811 4.33836H15.8125C15.8372 4.35375 15.8579 4.37298 15.8802 4.39067C15.9002 4.40605 15.9225 4.4199 15.9402 4.43682C15.9618 4.45913 15.9772 4.48452 15.9956 4.50913C16.0087 4.52759 16.0264 4.54375 16.0372 4.56375C16.0548 4.59452 16.0648 4.62682 16.0772 4.65913C16.0833 4.67682 16.0941 4.69298 16.0987 4.71144C16.1129 4.76386 16.1201 4.81791 16.1202 4.87221V20.6868L22.2802 17.1399V9.05529C22.2802 9.00144 22.2879 8.94682 22.3018 8.89529C22.3072 8.87682 22.3172 8.86067 22.3233 8.84298C22.3356 8.81067 22.3464 8.77759 22.3633 8.74759C22.3748 8.72759 22.3918 8.71144 22.4048 8.69298C22.4233 8.66836 22.4387 8.64298 22.4602 8.62144C22.4779 8.60375 22.5002 8.59067 22.5202 8.57528C22.5433 8.55682 22.5633 8.53682 22.5879 8.52221L29.9818 4.26605C30.0753 4.21212 30.1815 4.18373 30.2895 4.18373C30.3975 4.18373 30.5036 4.21212 30.5972 4.26605L37.9895 8.52221C38.0156 8.53759 38.0356 8.55682 38.0587 8.57452C38.0779 8.5899 38.1002 8.60375 38.1179 8.62067C38.1395 8.64298 38.1549 8.66836 38.1733 8.69298C38.1872 8.71144 38.2041 8.72759 38.2149 8.74759C38.2325 8.77759 38.2425 8.81067 38.2548 8.84298C38.2618 8.86067 38.2718 8.87682 38.2764 8.89529ZM37.0656 17.1399V10.1214L34.4787 11.6107L30.9049 13.6684V20.6868L37.0664 17.1399H37.0656ZM29.6733 29.8361V22.813L26.1579 24.8207L16.1195 30.5499V37.6391L29.6733 29.8361ZM1.33485 5.93759V29.8361L14.8872 37.6384V30.5507L7.80716 26.5437L7.80485 26.5422L7.80177 26.5407C7.77792 26.5268 7.75792 26.5068 7.73562 26.4899C7.71639 26.4745 7.69408 26.4622 7.67716 26.4453L7.67562 26.443C7.65562 26.4237 7.64177 26.3999 7.62485 26.3784C7.60946 26.3576 7.591 26.3399 7.57869 26.3184L7.57792 26.3161C7.56408 26.293 7.55562 26.2653 7.54562 26.2391C7.53562 26.2161 7.52254 26.1945 7.51639 26.1699C7.50869 26.1407 7.50715 26.1091 7.50408 26.0791C7.501 26.0561 7.49485 26.033 7.49485 26.0099V26.0084V9.48452L3.92177 7.42605L1.33485 5.93759ZM8.11177 1.32682L1.95254 4.87221L8.11023 8.41759L14.2687 4.87144L8.11023 1.32682H8.11177ZM11.3148 23.453L14.8879 21.3961V5.93759L12.301 7.42682L8.72715 9.48452V24.943L11.3148 23.453ZM30.2895 5.51067L24.131 9.05605L30.2895 12.6014L36.4472 9.05529L30.2895 5.51067ZM29.6733 13.6684L26.0995 11.6107L23.5125 10.1214V17.1399L27.0856 19.1968L29.6733 20.6868V13.6684ZM15.5025 29.4845L24.5356 24.3276L29.051 21.7507L22.8972 18.2076L15.8118 22.2868L9.35408 26.0045L15.5025 29.4845Z" fill="white"></path>
</svg>
