<?xml version="1.0" encoding="UTF-8"?>
<svg xmlns="http://www.w3.org/2000/svg" width="41" height="40" viewBox="0 0 41 40" fill="none">
  <path d="M20.4785 4.00026C19.1734 4.00633 17.9271 4.11763 16.8304 4.31168C13.5999 4.88243 13.0134 6.07703 13.0134 8.2801V11.1897H20.6475V12.1595H13.0134H10.1483C7.92965 12.1595 5.98689 13.4931 5.37922 16.0301C4.67828 18.938 4.64719 20.7526 5.37922 23.7889C5.92189 26.0491 7.21784 27.6595 9.43653 27.6595H12.0613V24.1715C12.0613 21.6517 14.2415 19.429 16.8304 19.429H24.4557C26.5783 19.429 28.2728 17.6813 28.2728 15.5496V8.2801C28.2728 6.21116 26.5274 4.65698 24.4557 4.31168C23.1443 4.09338 21.7835 3.9942 20.4785 4.00026ZM16.35 6.34038C17.1385 6.34038 17.7825 6.99487 17.7825 7.79962C17.7825 8.60151 17.1385 9.24996 16.35 9.24996C15.5586 9.24996 14.9175 8.60151 14.9175 7.79962C14.9175 6.99487 15.5586 6.34038 16.35 6.34038Z" fill="white"></path>
  <path d="M29.2251 12.1592V15.5492C29.2251 18.1775 26.9969 20.3896 24.456 20.3896H16.8307C14.7421 20.3896 13.0137 22.1773 13.0137 24.2691V31.5386C13.0137 33.6075 14.8127 34.8244 16.8307 35.418C19.2473 36.1286 21.5646 36.257 24.456 35.418C26.3779 34.8615 28.2731 33.7416 28.2731 31.5386V28.629H20.6478V27.6591H28.2731H32.0902C34.3089 27.6591 35.1356 26.1115 35.9072 23.7886C36.7043 21.3972 36.6703 19.0975 35.9072 16.0297C35.3589 13.8209 34.3117 12.1592 32.0902 12.1592H29.2251ZM24.9365 30.5687C25.7279 30.5687 26.369 31.2171 26.369 32.019C26.369 32.8238 25.7279 33.4783 24.9365 33.4783C24.1479 33.4783 23.504 32.8238 23.504 32.019C23.504 31.2171 24.1479 30.5687 24.9365 30.5687Z" fill="white"></path>
</svg>
