<?xml version="1.0" encoding="UTF-8"?>
<svg xmlns="http://www.w3.org/2000/svg" width="44" height="40" viewBox="0 0 44 40" fill="none">
  <path d="M21.083 23C23.016 23 24.583 21.6569 24.583 20C24.583 18.3431 23.016 17 21.083 17C19.15 17 17.583 18.3431 17.583 20C17.583 21.6569 19.15 23 21.083 23Z" fill="white"></path>
  <path d="M21.0831 26.3159C30.4257 26.3159 37.9993 23.4269 37.9993 19.863C37.9993 16.2992 30.4257 13.4102 21.0831 13.4102C11.7406 13.4102 4.16699 16.2992 4.16699 19.863C4.16699 23.4269 11.7406 26.3159 21.0831 26.3159Z" stroke="white"></path>
  <path d="M15.4897 23.0891C20.161 31.1724 26.4521 36.2807 29.5413 34.4988C32.6306 32.7169 31.3481 24.7195 26.6768 16.6362C22.0056 8.55284 15.7144 3.44453 12.6252 5.22644C9.53594 7.00836 10.8184 15.0057 15.4897 23.0891Z" stroke="white"></path>
  <path d="M15.4896 16.6364C10.8183 24.7198 9.53581 32.7171 12.6251 34.4991C15.7143 36.281 22.0054 31.1727 26.6767 23.0893C31.348 15.006 32.6304 7.0086 29.5412 5.22668C26.452 3.44477 20.1608 8.55308 15.4896 16.6364Z" stroke="white"></path>
</svg>
