<?xml version="1.0" encoding="UTF-8"?>
<svg xmlns="http://www.w3.org/2000/svg" width="41" height="40" viewBox="0 0 41 40" fill="none">
  <path d="M19.2209 33.3964L28.3518 31.7818L28.4364 31.7627L23.74 26.1745C22.165 24.3109 20.5987 22.4399 19.0409 20.5618C19.0409 20.5345 23.8927 7.17364 23.92 7.12727C26.6044 11.7228 29.2717 16.3283 31.9218 20.9436L39.9673 34.8936L40.03 35L10.1718 34.9973L19.2209 33.3964ZM1.30273 31.6945C1.30273 31.6864 3.51455 27.8436 6.22001 23.1555L11.14 14.6273L16.8727 9.81636C20.0255 7.17364 22.6136 5 22.6218 5C22.6015 5.08069 22.5713 5.15855 22.5318 5.23182L16.3027 18.5845L10.1936 31.6973L5.74819 31.7027C3.30183 31.7055 1.30273 31.7027 1.30273 31.6945Z" fill="white"></path>
</svg>
