<svg width="433" height="391" viewBox="0 0 433 391" fill="none" xmlns="http://www.w3.org/2000/svg">
<path d="M433 331.523H0V331.74H433V331.523Z" fill="#EBEBEB" style="fill:#EBEBEB;fill:color(display-p3 0.9216 0.9216 0.9216);fill-opacity:1;"/>
<path d="M372.126 337.428H287.607V337.644H372.126V337.428Z" fill="#EBEBEB" style="fill:#EBEBEB;fill:color(display-p3 0.9216 0.9216 0.9216);fill-opacity:1;"/>
<path d="M290.687 342.438H250.273V342.654H290.687V342.438Z" fill="#EBEBEB" style="fill:#EBEBEB;fill:color(display-p3 0.9216 0.9216 0.9216);fill-opacity:1;"/>
<path d="M389.614 345.479H372.994V345.695H389.614V345.479Z" fill="#EBEBEB" style="fill:#EBEBEB;fill:color(display-p3 0.9216 0.9216 0.9216);fill-opacity:1;"/>
<path d="M189.654 342.545H109.525V342.762H189.654V342.545Z" fill="#EBEBEB" style="fill:#EBEBEB;fill:color(display-p3 0.9216 0.9216 0.9216);fill-opacity:1;"/>
<path d="M101.816 342.545H84.5801V342.762H101.816V342.545Z" fill="#EBEBEB" style="fill:#EBEBEB;fill:color(display-p3 0.9216 0.9216 0.9216);fill-opacity:1;"/>
<path d="M78.5073 338.885H50.0488V339.102H78.5073V338.885Z" fill="#EBEBEB" style="fill:#EBEBEB;fill:color(display-p3 0.9216 0.9216 0.9216);fill-opacity:1;"/>
<path d="M205.255 292.859H38.031C35.3057 292.859 33.0879 290.639 33.0879 287.911V52.5892C33.0879 49.8609 35.3057 47.6406 38.031 47.6406H205.255C207.979 47.6406 210.197 49.8609 210.197 52.5892V287.911C210.197 290.639 207.979 292.859 205.255 292.859ZM38.031 47.8582C35.4244 47.8582 33.3044 49.9806 33.3044 52.5901V287.911C33.3044 290.521 35.4244 292.643 38.031 292.643H205.255C207.861 292.643 209.98 290.521 209.98 287.911V52.5892C209.98 49.9806 207.861 47.8574 205.255 47.8574L38.031 47.8582Z" fill="#EBEBEB" style="fill:#EBEBEB;fill:color(display-p3 0.9216 0.9216 0.9216);fill-opacity:1;"/>
<path d="M392.567 292.859H225.345C222.619 292.859 220.402 290.639 220.402 287.911V52.5892C220.402 49.8609 222.62 47.6406 225.345 47.6406H392.567C395.294 47.6406 397.511 49.8609 397.511 52.5892V287.911C397.511 290.639 395.294 292.859 392.567 292.859ZM225.345 47.8582C222.739 47.8582 220.619 49.9806 220.619 52.5901V287.911C220.619 290.521 222.739 292.643 225.345 292.643H392.567C395.174 292.643 397.294 290.521 397.294 287.911V52.5892C397.294 49.9806 395.174 47.8574 392.567 47.8574L225.345 47.8582Z" fill="#EBEBEB" style="fill:#EBEBEB;fill:color(display-p3 0.9216 0.9216 0.9216);fill-opacity:1;"/>
<path d="M338.669 323.546H77.1034L61.5059 145.918H323.072L338.669 323.546Z" fill="#3B3C3E" style="fill:#3B3C3E;fill:color(display-p3 0.2314 0.2353 0.2431);fill-opacity:1;"/>
<path d="M72.4823 329.203L77.1041 323.546L61.5066 145.918L56.8926 151.663L72.4823 329.203Z" fill="#434447" style="fill:#434447;fill:color(display-p3 0.2627 0.2667 0.2784);fill-opacity:1;"/>
<path d="M80.561 316.803L66.1932 153.18C66.0417 151.456 67.3987 149.973 69.1281 149.973H316.682C318.209 149.973 319.483 151.14 319.617 152.664L333.985 316.286C334.136 318.011 332.779 319.494 331.05 319.494H83.4959C81.9691 319.494 80.6952 318.325 80.561 316.803Z" fill="#4C4E52" style="fill:#4C4E52;fill:color(display-p3 0.2980 0.3059 0.3216);fill-opacity:1;"/>
<path d="M113.868 323.545H74.4587L71.6719 331.524H111.081L113.868 323.545Z" fill="#434447" style="fill:#434447;fill:color(display-p3 0.2627 0.2667 0.2784);fill-opacity:1;"/>
<path d="M113.867 323.545H340.086L337.298 331.524H111.08L113.867 323.545Z" fill="#3B3C3E" style="fill:#3B3C3E;fill:color(display-p3 0.2314 0.2353 0.2431);fill-opacity:1;"/>
<path d="M220.573 323.545H270.245L269.711 328.769H220.039L220.573 323.545Z" fill="#E0E0E0" style="fill:#E0E0E0;fill:color(display-p3 0.8784 0.8784 0.8784);fill-opacity:1;"/>
<path d="M295.841 134.262H358.6C363.8 168.729 339.75 197.09 305.321 197.09C294.305 197.09 283.043 194.187 272.672 188.673L295.841 134.262Z" fill="#84888C" style="fill:#84888C;fill:color(display-p3 0.5176 0.5333 0.5490);fill-opacity:1;"/>
<path d="M295.842 134.26L328.92 86.1309C336.83 92.0279 343.587 99.3937 348.714 107.708C353.841 116.022 357.216 125.086 358.6 134.26H295.842Z" fill="#696D71" style="fill:#696D71;fill:color(display-p3 0.4118 0.4275 0.4431);fill-opacity:1;"/>
<path d="M295.841 134.26L286.361 71.4316C293.682 71.4316 301.14 72.7139 308.398 75.2203C315.655 77.7267 322.601 81.419 328.919 86.1301L295.841 134.26Z" fill="#5A5D60" style="fill:#5A5D60;fill:color(display-p3 0.3529 0.3647 0.3765);fill-opacity:1;"/>
<path d="M295.841 134.26L272.671 188.671C251.587 177.462 236.465 156.678 233.082 134.26C227.882 99.7934 251.932 71.4316 286.361 71.4316L295.841 134.26Z" fill="#3B3C3E" style="fill:#3B3C3E;fill:color(display-p3 0.2314 0.2353 0.2431);fill-opacity:1;"/>
<path d="M218.367 246.381H274.038C274.773 251.251 274.867 256.101 274.318 260.805C273.769 265.51 272.581 270.029 270.784 274.247L218.367 246.381Z" fill="#434447" style="fill:#434447;fill:color(display-p3 0.2627 0.2667 0.2784);fill-opacity:1;"/>
<path d="M218.367 246.38L219.753 191.494C232.983 193.769 245.683 200.521 255.608 210.556C265.533 220.591 272.061 233.281 274.038 246.381H218.367V246.38Z" fill="#5A5D60" style="fill:#5A5D60;fill:color(display-p3 0.3529 0.3647 0.3765);fill-opacity:1;"/>
<path d="M218.367 246.381L168.929 265.443C165.787 259.334 163.677 252.882 162.696 246.381C158.083 215.807 179.417 190.648 209.958 190.648C213.198 190.648 216.476 190.932 219.753 191.495L218.367 246.381Z" fill="#3B3C3E" style="fill:#3B3C3E;fill:color(display-p3 0.2314 0.2353 0.2431);fill-opacity:1;"/>
<path d="M218.366 246.381L270.783 274.248C263.449 291.47 246.64 302.114 226.776 302.114C203.427 302.114 180.229 287.408 168.93 265.443L218.366 246.381Z" fill="#0F0F0F" style="fill:#0F0F0F;fill:color(display-p3 0.0588 0.0588 0.0588);fill-opacity:1;"/>
<path d="M216.5 370.678C309.233 370.678 384.408 366.283 384.408 360.862C384.408 355.44 309.233 351.045 216.5 351.045C123.767 351.045 48.5918 355.44 48.5918 360.862C48.5918 366.283 123.767 370.678 216.5 370.678Z" fill="#0D0D0D" style="fill:#0D0D0D;fill:color(display-p3 0.0510 0.0510 0.0510);fill-opacity:1;"/>
<path d="M208.347 207.538H130.342C125.392 207.538 121.012 203.483 120.608 198.528L116.704 150.51C116.301 145.555 120.021 141.5 124.971 141.5H202.976C207.926 141.5 212.307 145.555 212.709 150.51L216.614 198.528C217.018 203.483 213.297 207.538 208.347 207.538Z" fill="#0F0F0F" style="fill:#0F0F0F;fill:color(display-p3 0.0588 0.0588 0.0588);fill-opacity:1;"/>
<path d="M208.347 207.914H130.342C125.188 207.914 120.654 203.718 120.235 198.56L116.33 150.542C116.127 148.033 116.92 145.669 118.564 143.882C120.202 142.104 122.478 141.125 124.972 141.125H202.977C208.13 141.125 212.664 145.322 213.084 150.48L216.989 198.498C217.192 201.006 216.399 203.37 214.755 205.157C213.117 206.935 210.842 207.914 208.347 207.914ZM124.972 141.877C122.689 141.877 120.609 142.77 119.116 144.392C117.615 146.022 116.891 148.185 117.077 150.481L120.982 198.499C121.371 203.277 125.569 207.164 130.342 207.164H208.347C210.63 207.164 212.71 206.27 214.203 204.649C215.704 203.018 216.428 200.856 216.241 198.56L212.337 150.543C211.948 145.764 207.749 141.877 202.977 141.877H124.972Z" fill="#79F3B6" style="fill:#79F3B6;fill:color(display-p3 0.4745 0.9529 0.7137);fill-opacity:1;"/>
<path d="M187.177 193.521C184.118 196.855 180.165 199.25 175.711 200.474L174.42 196.772C184.024 194.144 190.526 185.178 189.659 174.523C189.142 168.163 186.101 162.404 181.599 158.236L184.086 155.525C195.346 165.949 196.74 183.099 187.177 193.521Z" fill="#E0E0E0" style="fill:#E0E0E0;fill:color(display-p3 0.8784 0.8784 0.8784);fill-opacity:1;"/>
<path d="M184.087 155.526L181.6 158.237C177.099 154.069 171.136 151.493 164.783 151.493C158.43 151.493 152.888 154.076 149.071 158.244L146.135 155.526C150.758 150.487 157.361 147.656 164.471 147.656C171.589 147.656 178.645 150.487 184.087 155.526Z" fill="#263238" style="fill:#263238;fill:color(display-p3 0.1490 0.1961 0.2196);fill-opacity:1;"/>
<path d="M175.712 200.473C166.665 202.951 156.549 200.293 149.225 193.52C137.974 183.097 136.58 165.948 146.135 155.525L149.072 158.243C145.247 162.411 143.143 168.162 143.66 174.522C144.694 187.235 155.83 197.544 168.529 197.544C170.584 197.544 172.565 197.274 174.421 196.771L175.712 200.473Z" fill="#79F3B6" style="fill:#79F3B6;fill:color(display-p3 0.4745 0.9529 0.7137);fill-opacity:1;"/>
<path d="M102.09 63.8848H95.8359V64.6347H102.09V63.8848Z" fill="#79F3B6" style="fill:#79F3B6;fill:color(display-p3 0.4745 0.9529 0.7137);fill-opacity:1;"/>
<path d="M89.7757 63.8848H75.5352V64.6347H89.7757V63.8848Z" fill="#79F3B6" style="fill:#79F3B6;fill:color(display-p3 0.4745 0.9529 0.7137);fill-opacity:1;"/>
<path d="M156.005 132.9H78.0005C73.0505 132.9 68.6702 128.845 68.2667 123.889L64.3619 75.8717C63.9592 70.9161 67.6795 66.8613 72.6296 66.8613H150.635C155.585 66.8613 159.965 70.9161 160.368 75.8717L164.272 123.889C164.676 128.845 160.956 132.9 156.005 132.9Z" fill="#0F0F0F" style="fill:#0F0F0F;fill:color(display-p3 0.0588 0.0588 0.0588);fill-opacity:1;"/>
<path d="M156.005 133.276H77.9996C72.846 133.276 68.3117 129.079 67.8925 123.921L63.9886 75.9033C63.7842 73.3951 64.5775 71.0301 66.2229 69.2441C67.8605 67.4651 70.1363 66.4863 72.6304 66.4863H150.635C155.789 66.4863 160.323 70.6833 160.742 75.8417L164.647 123.859C164.851 126.368 164.057 128.732 162.413 130.519C160.775 132.297 158.499 133.276 156.005 133.276ZM72.6295 67.2371C70.3468 67.2371 68.2675 68.131 66.7736 69.753C65.2729 71.3829 64.5489 73.5451 64.7359 75.8417L68.6407 123.859C69.0296 128.638 73.2279 132.525 78.0005 132.525H156.006C158.288 132.525 160.368 131.632 161.862 130.01C163.363 128.38 164.087 126.217 163.9 123.92L159.995 75.9024C159.606 71.1237 155.407 67.2362 150.635 67.2362L72.6295 67.2371Z" fill="#79F3B6" style="fill:#79F3B6;fill:color(display-p3 0.4745 0.9529 0.7137);fill-opacity:1;"/>
<path d="M71.4165 80.6405H112.752L112.42 76.5527H71.084L71.4165 80.6405Z" fill="#E0E0E0" style="fill:#E0E0E0;fill:color(display-p3 0.8784 0.8784 0.8784);fill-opacity:1;"/>
<path d="M154.088 80.6405H112.752L112.42 76.5527H153.756L154.088 80.6405Z" fill="#79F3B6" style="fill:#79F3B6;fill:color(display-p3 0.4745 0.9529 0.7137);fill-opacity:1;"/>
<path d="M72.2818 91.2839H84.0741L83.7415 87.1953H71.9492L72.2818 91.2839Z" fill="#E0E0E0" style="fill:#E0E0E0;fill:color(display-p3 0.8784 0.8784 0.8784);fill-opacity:1;"/>
<path d="M154.952 91.2839H84.0728L83.7402 87.1953H154.62L154.952 91.2839Z" fill="#79F3B6" style="fill:#79F3B6;fill:color(display-p3 0.4745 0.9529 0.7137);fill-opacity:1;"/>
<path d="M73.147 101.926H109.942L109.609 97.8379H72.8145L73.147 101.926Z" fill="#E0E0E0" style="fill:#E0E0E0;fill:color(display-p3 0.8784 0.8784 0.8784);fill-opacity:1;"/>
<path d="M155.82 101.926H109.942L109.609 97.8379H155.487L155.82 101.926Z" fill="#79F3B6" style="fill:#79F3B6;fill:color(display-p3 0.4745 0.9529 0.7137);fill-opacity:1;"/>
<path d="M74.0122 112.567H136.808L136.475 108.479H73.6797L74.0122 112.567Z" fill="#E0E0E0" style="fill:#E0E0E0;fill:color(display-p3 0.8784 0.8784 0.8784);fill-opacity:1;"/>
<path d="M156.686 112.567H136.809L136.477 108.479H156.353L156.686 112.567Z" fill="#79F3B6" style="fill:#79F3B6;fill:color(display-p3 0.4745 0.9529 0.7137);fill-opacity:1;"/>
<path d="M74.8775 123.209H103.921L103.589 119.121H74.5449L74.8775 123.209Z" fill="#E0E0E0" style="fill:#E0E0E0;fill:color(display-p3 0.8784 0.8784 0.8784);fill-opacity:1;"/>
<path d="M157.55 123.209H103.922L103.59 119.121H157.218L157.55 123.209Z" fill="#79F3B6" style="fill:#79F3B6;fill:color(display-p3 0.4745 0.9529 0.7137);fill-opacity:1;"/>
<path d="M262.641 132.9H184.636C179.686 132.9 175.306 128.845 174.903 123.889L170.999 75.8717C170.596 70.9161 174.316 66.8613 179.266 66.8613H257.271C262.221 66.8613 266.602 70.9161 267.005 75.8717L270.91 123.889C271.313 128.845 267.591 132.9 262.641 132.9Z" fill="#0F0F0F" style="fill:#0F0F0F;fill:color(display-p3 0.0588 0.0588 0.0588);fill-opacity:1;"/>
<path d="M262.642 133.276H184.637C179.483 133.276 174.949 129.079 174.53 123.921L170.625 75.9033C170.422 73.3951 171.215 71.0301 172.859 69.2433C174.497 67.4651 176.772 66.4863 179.266 66.4863H257.272C262.425 66.4863 266.959 70.6833 267.379 75.8417L271.284 123.859C271.488 126.367 270.695 128.732 269.049 130.518C267.413 132.297 265.137 133.276 262.642 133.276ZM179.266 67.2371C176.984 67.2371 174.904 68.1301 173.41 69.7522C171.909 71.3829 171.185 73.5451 171.372 75.8417L175.276 123.859C175.665 128.638 179.864 132.525 184.636 132.525H262.641C264.924 132.525 267.003 131.632 268.497 130.01C269.998 128.38 270.722 126.217 270.535 123.921L266.63 75.9033C266.241 71.1246 262.043 67.2371 257.27 67.2371H179.266Z" fill="#79F3B6" style="fill:#79F3B6;fill:color(display-p3 0.4745 0.9529 0.7137);fill-opacity:1;"/>
<path d="M223.541 123.21H222.164L218.369 76.5527H219.746L223.541 123.21Z" fill="#E0E0E0" style="fill:#E0E0E0;fill:color(display-p3 0.8784 0.8784 0.8784);fill-opacity:1;"/>
<path d="M225.618 103.823H216.93L215.447 85.5938H224.135L225.618 103.823Z" fill="#79F3B6" style="fill:#79F3B6;fill:color(display-p3 0.4745 0.9529 0.7137);fill-opacity:1;"/>
<path d="M206.44 123.21H205.063L201.27 76.5527H202.646L206.44 123.21Z" fill="#E0E0E0" style="fill:#E0E0E0;fill:color(display-p3 0.8784 0.8784 0.8784);fill-opacity:1;"/>
<path d="M208.851 107.872H200.163L198.863 91.8926H207.551L208.851 107.872Z" fill="#79F3B6" style="fill:#79F3B6;fill:color(display-p3 0.4745 0.9529 0.7137);fill-opacity:1;"/>
<path d="M189.345 123.21H187.968L184.174 76.5527H185.55L189.345 123.21Z" fill="#E0E0E0" style="fill:#E0E0E0;fill:color(display-p3 0.8784 0.8784 0.8784);fill-opacity:1;"/>
<path d="M190.683 94.7244H181.995L181.104 83.7539H189.791L190.683 94.7244Z" fill="#263238" style="fill:#263238;fill:color(display-p3 0.1490 0.1961 0.2196);fill-opacity:1;"/>
<path d="M240.638 123.21H239.261L235.467 76.5527H236.844L240.638 123.21Z" fill="#E0E0E0" style="fill:#E0E0E0;fill:color(display-p3 0.8784 0.8784 0.8784);fill-opacity:1;"/>
<path d="M243.558 114.171H234.87L232.547 85.5938H241.234L243.558 114.171Z" fill="#263238" style="fill:#263238;fill:color(display-p3 0.1490 0.1961 0.2196);fill-opacity:1;"/>
<path d="M257.735 123.21H256.358L252.564 76.5527H253.941L257.735 123.21Z" fill="#E0E0E0" style="fill:#E0E0E0;fill:color(display-p3 0.8784 0.8784 0.8784);fill-opacity:1;"/>
<path d="M260.934 117.596H252.246L250.385 94.709H259.072L260.934 117.596Z" fill="#79F3B6" style="fill:#79F3B6;fill:color(display-p3 0.4745 0.9529 0.7137);fill-opacity:1;"/>
<path d="M179.167 281.564H101.162C96.2117 281.564 91.8315 277.509 91.4288 272.553L87.524 224.536C87.1213 219.58 90.8416 215.525 95.7917 215.525H173.797C178.747 215.525 183.127 219.58 183.53 224.536L187.434 272.553C187.838 277.509 184.117 281.564 179.167 281.564Z" fill="#0F0F0F" style="fill:#0F0F0F;fill:color(display-p3 0.0588 0.0588 0.0588);fill-opacity:1;"/>
<path d="M179.167 281.939H101.162C96.0088 281.939 91.4744 277.743 91.0552 272.585L87.1505 224.567C86.947 222.059 87.7402 219.694 89.3847 217.907C91.0223 216.129 93.2982 215.15 95.7923 215.15H173.797C178.951 215.15 183.484 219.347 183.904 224.506L187.809 272.523C188.013 275.031 187.22 277.396 185.576 279.182C183.938 280.961 181.662 281.939 179.167 281.939ZM95.7923 215.901C93.5095 215.901 91.4294 216.795 89.9364 218.416C88.4356 220.047 87.7116 222.209 87.8978 224.506L91.8026 272.523C92.1914 277.301 96.3907 281.189 101.162 281.189H179.167C181.45 281.189 183.53 280.295 185.023 278.673C186.524 277.043 187.248 274.881 187.061 272.585L183.156 224.567C182.767 219.789 178.569 215.901 173.796 215.901H95.7923Z" fill="#79F3B6" style="fill:#79F3B6;fill:color(display-p3 0.4745 0.9529 0.7137);fill-opacity:1;"/>
<path d="M106.346 247.401L123.158 266.847L142.438 237.074L154.361 252.459L157.27 247.967L176.758 271.35L101.908 271.322L106.346 247.401Z" fill="#79F3B6" style="fill:#79F3B6;fill:color(display-p3 0.4745 0.9529 0.7137);fill-opacity:1;"/>
<path d="M162.471 248.607L154.657 265.357L129.735 225.742L117.999 250.9L114.239 244.922L101.91 271.349L176.756 271.311L162.471 248.607Z" fill="#E0E0E0" style="fill:#E0E0E0;fill:color(display-p3 0.8784 0.8784 0.8784);fill-opacity:1;"/>
<path d="M322.914 137.898C325.001 141.817 326.793 145.691 328.481 149.726C330.127 153.762 331.648 157.863 332.837 162.196C333.14 163.271 333.403 164.38 333.655 165.494C333.754 165.872 333.999 167.079 333.998 167.845C334.037 168.696 333.972 169.464 333.866 170.197C333.397 173.08 332.389 175.289 331.29 177.376C329.047 181.509 326.341 184.934 323.195 188.168C322.251 189.139 320.7 189.159 319.731 188.214C318.94 187.443 318.781 186.266 319.263 185.333L319.325 185.216C321.182 181.627 323.02 177.841 324.262 174.248C324.86 172.469 325.334 170.647 325.331 169.306C325.321 168.986 325.312 168.691 325.263 168.487C325.243 168.38 325.223 168.284 325.189 168.231L325.029 167.721C324.74 166.787 324.444 165.853 324.097 164.911C322.786 161.147 321.164 157.367 319.48 153.617C317.802 149.879 315.997 146.077 314.212 142.464L314.176 142.39C312.974 139.956 313.97 137.006 316.402 135.802C318.786 134.621 321.669 135.565 322.914 137.898Z" fill="#79F3B6" style="fill:#79F3B6;fill:color(display-p3 0.4745 0.9529 0.7137);fill-opacity:1;"/>
<path d="M320.203 184.847L316.07 186.15L320.935 191.852C320.935 191.852 322.812 190.197 323.488 187.803C323.717 186.995 323.383 186.13 322.703 185.639L322.014 185.14C321.491 184.761 320.819 184.652 320.203 184.847Z" fill="#7F3E3B" style="fill:#7F3E3B;fill:color(display-p3 0.4980 0.2431 0.2314);fill-opacity:1;"/>
<path d="M310.377 189.665L315.589 193.806L320.935 191.852L316.071 186.15L310.377 189.665Z" fill="#7F3E3B" style="fill:#7F3E3B;fill:color(display-p3 0.4980 0.2431 0.2314);fill-opacity:1;"/>
<path d="M292.577 108.9C292.474 109.414 292.118 109.774 291.782 109.706C291.447 109.637 291.26 109.167 291.365 108.653C291.469 108.14 291.825 107.78 292.16 107.848C292.495 107.917 292.682 108.388 292.577 108.9Z" fill="#263238" style="fill:#263238;fill:color(display-p3 0.1490 0.1961 0.2196);fill-opacity:1;"/>
<path d="M292.167 109.785C292.167 109.785 290.401 112.507 288.828 113.674C289.562 114.706 291.182 114.632 291.182 114.632L292.167 109.785Z" fill="#630F0F" style="fill:#630F0F;fill:color(display-p3 0.3882 0.0588 0.0588);fill-opacity:1;"/>
<path d="M295.033 106.435C295.107 106.435 295.183 106.408 295.242 106.354C295.366 106.238 295.374 106.044 295.258 105.919C294.105 104.67 292.706 104.892 292.646 104.902C292.479 104.931 292.366 105.09 292.395 105.257C292.424 105.424 292.584 105.535 292.748 105.508C292.794 105.502 293.888 105.34 294.808 106.336C294.868 106.402 294.951 106.435 295.033 106.435Z" fill="#263238" style="fill:#263238;fill:color(display-p3 0.1490 0.1961 0.2196);fill-opacity:1;"/>
<path d="M306.805 118.236C305.875 122.984 305.315 129.561 308.632 132.728C308.632 132.728 307.335 137.544 298.524 137.544C288.835 137.544 293.863 133.317 293.863 133.317C297.89 132.066 297.855 127.473 296.934 123.785L306.805 118.236Z" fill="#7F3E3B" style="fill:#7F3E3B;fill:color(display-p3 0.4980 0.2431 0.2314);fill-opacity:1;"/>
<path d="M292.166 132.577C292.166 132.577 293.578 129.226 295.022 128.648C296.466 128.07 305.655 126.558 307.771 127.892C309.888 129.227 311.318 133.514 311.318 133.514L292.166 132.577Z" fill="#79F3B6" style="fill:#79F3B6;fill:color(display-p3 0.4745 0.9529 0.7137);fill-opacity:1;"/>
<path d="M301.877 354.57C301.045 354.57 300.242 354.455 299.973 354.081C299.879 353.95 299.805 353.727 299.986 353.409C300.087 353.23 300.251 353.11 300.473 353.049C301.552 352.755 303.816 354.048 303.912 354.103C303.968 354.136 303.998 354.199 303.988 354.261C303.977 354.325 303.929 354.375 303.867 354.387C303.453 354.47 302.652 354.57 301.877 354.57ZM300.849 353.311C300.741 353.311 300.642 353.322 300.552 353.347C300.41 353.385 300.312 353.456 300.252 353.562C300.144 353.752 300.183 353.847 300.222 353.901C300.524 354.321 302.162 354.331 303.368 354.16C302.767 353.851 301.607 353.311 300.849 353.311Z" fill="#79F3B6" style="fill:#79F3B6;fill:color(display-p3 0.4745 0.9529 0.7137);fill-opacity:1;"/>
<path d="M303.836 354.39C303.814 354.39 303.793 354.385 303.773 354.376C302.99 354.025 301.441 352.621 301.559 351.888C301.587 351.715 301.709 351.501 302.131 351.458C302.446 351.425 302.731 351.515 302.982 351.721C303.806 352.399 303.981 354.147 303.988 354.221C303.993 354.276 303.969 354.329 303.925 354.361C303.899 354.38 303.868 354.39 303.836 354.39ZM302.255 351.759C302.224 351.759 302.193 351.761 302.163 351.764C301.887 351.791 301.869 351.901 301.863 351.936C301.792 352.376 302.845 353.479 303.644 353.96C303.561 353.449 303.329 352.403 302.788 351.959C302.625 351.824 302.449 351.759 302.255 351.759Z" fill="#79F3B6" style="fill:#79F3B6;fill:color(display-p3 0.4745 0.9529 0.7137);fill-opacity:1;"/>
<path d="M310.964 354.237H304.482L303.836 339.209H310.318L310.964 354.237Z" fill="#7F3E3B" style="fill:#7F3E3B;fill:color(display-p3 0.4980 0.2431 0.2314);fill-opacity:1;"/>
<path d="M304.524 353.484H311.602C311.867 353.484 312.097 353.668 312.154 353.927L313.435 359.695C313.567 360.293 313.113 360.86 312.502 360.849C309.948 360.806 306.259 360.656 303.05 360.656C299.297 360.656 298.843 360.86 294.442 360.86C291.781 360.86 291.043 358.167 292.157 357.923C297.228 356.813 298.581 356.694 302.963 353.989C303.438 353.696 303.964 353.484 304.524 353.484Z" fill="#263238" style="fill:#263238;fill:color(display-p3 0.1490 0.1961 0.2196);fill-opacity:1;"/>
<path d="M320.238 132.751C326.313 134.145 330.322 150.558 330.322 150.558L320.178 158.187C320.178 158.187 314.645 154.754 312.652 146.988C310.564 138.85 314.027 131.326 320.238 132.751Z" fill="#263238" style="fill:#263238;fill:color(display-p3 0.1490 0.1961 0.2196);fill-opacity:1;"/>
<path opacity="0.2" d="M315.032 144.17C318.332 147.438 320.465 152.598 320.72 157.773L320.182 158.189C320.182 158.189 314.644 154.751 312.65 146.988C312.526 146.502 312.42 146.016 312.332 145.539L315.032 144.17Z" fill="black" style="fill:black;fill-opacity:1;"/>
<path d="M342.08 157.175L292.869 176.863L307.495 213.502L356.706 193.814L342.08 157.175Z" fill="#79F3B6" style="fill:#79F3B6;fill:color(display-p3 0.4745 0.9529 0.7137);fill-opacity:1;"/>
<path opacity="0.5" d="M341.357 157.464L292.869 176.863L307.495 213.502L355.983 194.103L341.357 157.464Z" fill="#0F0F0F" style="fill:#0F0F0F;fill:color(display-p3 0.0588 0.0588 0.0588);fill-opacity:1;"/>
<g opacity="0.5">
<path d="M301.753 177.069L297.162 178.906L298.462 182.164L303.053 180.327L301.753 177.069Z" fill="#79F3B6" style="fill:#79F3B6;fill:color(display-p3 0.4745 0.9529 0.7137);fill-opacity:1;"/>
<path d="M309.333 174.036L304.742 175.873L306.042 179.13L310.633 177.294L309.333 174.036Z" fill="#79F3B6" style="fill:#79F3B6;fill:color(display-p3 0.4745 0.9529 0.7137);fill-opacity:1;"/>
<path d="M316.913 171.003L312.322 172.84L313.623 176.097L318.214 174.26L316.913 171.003Z" fill="#79F3B6" style="fill:#79F3B6;fill:color(display-p3 0.4745 0.9529 0.7137);fill-opacity:1;"/>
<path d="M324.493 167.972L319.902 169.809L321.203 173.066L325.794 171.229L324.493 167.972Z" fill="#79F3B6" style="fill:#79F3B6;fill:color(display-p3 0.4745 0.9529 0.7137);fill-opacity:1;"/>
<path d="M332.073 164.939L327.482 166.775L328.783 170.033L333.374 168.196L332.073 164.939Z" fill="#79F3B6" style="fill:#79F3B6;fill:color(display-p3 0.4745 0.9529 0.7137);fill-opacity:1;"/>
<path d="M339.653 161.911L335.062 163.748L336.363 167.005L340.954 165.169L339.653 161.911Z" fill="#79F3B6" style="fill:#79F3B6;fill:color(display-p3 0.4745 0.9529 0.7137);fill-opacity:1;"/>
<path d="M303.9 182.444L299.309 184.281L300.609 187.539L305.2 185.703L303.9 182.444Z" fill="#79F3B6" style="fill:#79F3B6;fill:color(display-p3 0.4745 0.9529 0.7137);fill-opacity:1;"/>
<path d="M311.48 179.415L306.889 181.252L308.189 184.51L312.78 182.673L311.48 179.415Z" fill="#79F3B6" style="fill:#79F3B6;fill:color(display-p3 0.4745 0.9529 0.7137);fill-opacity:1;"/>
<path d="M319.06 176.384L314.469 178.221L315.769 181.479L320.36 179.642L319.06 176.384Z" fill="#79F3B6" style="fill:#79F3B6;fill:color(display-p3 0.4745 0.9529 0.7137);fill-opacity:1;"/>
<path d="M326.64 173.351L322.049 175.188L323.349 178.445L327.94 176.608L326.64 173.351Z" fill="#79F3B6" style="fill:#79F3B6;fill:color(display-p3 0.4745 0.9529 0.7137);fill-opacity:1;"/>
<path d="M334.222 170.318L329.631 172.154L330.931 175.412L335.522 173.576L334.222 170.318Z" fill="#79F3B6" style="fill:#79F3B6;fill:color(display-p3 0.4745 0.9529 0.7137);fill-opacity:1;"/>
<path d="M341.8 167.284L337.209 169.121L338.509 172.378L343.1 170.542L341.8 167.284Z" fill="#79F3B6" style="fill:#79F3B6;fill:color(display-p3 0.4745 0.9529 0.7137);fill-opacity:1;"/>
<path d="M306.048 187.827L301.457 189.664L302.757 192.921L307.348 191.085L306.048 187.827Z" fill="#79F3B6" style="fill:#79F3B6;fill:color(display-p3 0.4745 0.9529 0.7137);fill-opacity:1;"/>
<path d="M313.628 184.792L309.037 186.629L310.337 189.886L314.928 188.049L313.628 184.792Z" fill="#79F3B6" style="fill:#79F3B6;fill:color(display-p3 0.4745 0.9529 0.7137);fill-opacity:1;"/>
<path d="M321.208 181.763L316.617 183.6L317.917 186.857L322.508 185.02L321.208 181.763Z" fill="#79F3B6" style="fill:#79F3B6;fill:color(display-p3 0.4745 0.9529 0.7137);fill-opacity:1;"/>
<path d="M328.788 178.73L324.197 180.566L325.498 183.824L330.089 181.987L328.788 178.73Z" fill="#79F3B6" style="fill:#79F3B6;fill:color(display-p3 0.4745 0.9529 0.7137);fill-opacity:1;"/>
<path d="M336.368 175.702L331.777 177.539L333.078 180.796L337.669 178.96L336.368 175.702Z" fill="#79F3B6" style="fill:#79F3B6;fill:color(display-p3 0.4745 0.9529 0.7137);fill-opacity:1;"/>
<path d="M343.948 172.669L339.357 174.506L340.658 177.764L345.249 175.927L343.948 172.669Z" fill="#79F3B6" style="fill:#79F3B6;fill:color(display-p3 0.4745 0.9529 0.7137);fill-opacity:1;"/>
<path d="M308.194 193.206L303.604 195.043L304.904 198.301L309.495 196.464L308.194 193.206Z" fill="#79F3B6" style="fill:#79F3B6;fill:color(display-p3 0.4745 0.9529 0.7137);fill-opacity:1;"/>
<path d="M315.775 190.173L311.184 192.01L312.484 195.268L317.075 193.431L315.775 190.173Z" fill="#79F3B6" style="fill:#79F3B6;fill:color(display-p3 0.4745 0.9529 0.7137);fill-opacity:1;"/>
<path d="M323.357 187.14L318.766 188.977L320.066 192.234L324.657 190.397L323.357 187.14Z" fill="#79F3B6" style="fill:#79F3B6;fill:color(display-p3 0.4745 0.9529 0.7137);fill-opacity:1;"/>
<path d="M330.935 184.109L326.344 185.945L327.644 189.203L332.235 187.367L330.935 184.109Z" fill="#79F3B6" style="fill:#79F3B6;fill:color(display-p3 0.4745 0.9529 0.7137);fill-opacity:1;"/>
<path d="M338.517 181.075L333.926 182.912L335.226 186.169L339.817 184.333L338.517 181.075Z" fill="#79F3B6" style="fill:#79F3B6;fill:color(display-p3 0.4745 0.9529 0.7137);fill-opacity:1;"/>
<path d="M346.095 178.042L341.504 179.879L342.804 183.136L347.395 181.299L346.095 178.042Z" fill="#79F3B6" style="fill:#79F3B6;fill:color(display-p3 0.4745 0.9529 0.7137);fill-opacity:1;"/>
<path d="M310.343 198.583L305.752 200.42L307.052 203.677L311.643 201.84L310.343 198.583Z" fill="#79F3B6" style="fill:#79F3B6;fill:color(display-p3 0.4745 0.9529 0.7137);fill-opacity:1;"/>
<path d="M317.923 195.552L313.332 197.389L314.632 200.646L319.223 198.809L317.923 195.552Z" fill="#79F3B6" style="fill:#79F3B6;fill:color(display-p3 0.4745 0.9529 0.7137);fill-opacity:1;"/>
<path d="M325.503 192.521L320.912 194.357L322.212 197.615L326.803 195.778L325.503 192.521Z" fill="#79F3B6" style="fill:#79F3B6;fill:color(display-p3 0.4745 0.9529 0.7137);fill-opacity:1;"/>
<path d="M333.081 189.491L328.49 191.328L329.791 194.585L334.382 192.749L333.081 189.491Z" fill="#79F3B6" style="fill:#79F3B6;fill:color(display-p3 0.4745 0.9529 0.7137);fill-opacity:1;"/>
<path d="M340.661 186.46L336.07 188.297L337.371 191.555L341.962 189.718L340.661 186.46Z" fill="#79F3B6" style="fill:#79F3B6;fill:color(display-p3 0.4745 0.9529 0.7137);fill-opacity:1;"/>
<path d="M348.243 183.423L343.652 185.26L344.953 188.518L349.544 186.681L348.243 183.423Z" fill="#79F3B6" style="fill:#79F3B6;fill:color(display-p3 0.4745 0.9529 0.7137);fill-opacity:1;"/>
<path d="M312.489 203.966L307.898 205.803L309.199 209.061L313.79 207.224L312.489 203.966Z" fill="#79F3B6" style="fill:#79F3B6;fill:color(display-p3 0.4745 0.9529 0.7137);fill-opacity:1;"/>
<path d="M320.069 200.933L315.479 202.77L316.779 206.028L321.37 204.191L320.069 200.933Z" fill="#79F3B6" style="fill:#79F3B6;fill:color(display-p3 0.4745 0.9529 0.7137);fill-opacity:1;"/>
<path d="M327.648 197.9L323.057 199.736L324.357 202.994L328.948 201.158L327.648 197.9Z" fill="#79F3B6" style="fill:#79F3B6;fill:color(display-p3 0.4745 0.9529 0.7137);fill-opacity:1;"/>
<path d="M335.23 194.866L330.639 196.703L331.939 199.96L336.53 198.124L335.23 194.866Z" fill="#79F3B6" style="fill:#79F3B6;fill:color(display-p3 0.4745 0.9529 0.7137);fill-opacity:1;"/>
<path d="M342.81 191.831L338.219 193.668L339.519 196.925L344.11 195.088L342.81 191.831Z" fill="#79F3B6" style="fill:#79F3B6;fill:color(display-p3 0.4745 0.9529 0.7137);fill-opacity:1;"/>
<path d="M350.392 188.802L345.801 190.639L347.101 193.896L351.692 192.059L350.392 188.802Z" fill="#79F3B6" style="fill:#79F3B6;fill:color(display-p3 0.4745 0.9529 0.7137);fill-opacity:1;"/>
</g>
<path d="M338.011 168.799C337.729 168.095 338.072 167.294 338.776 167.013C339.48 166.731 340.279 167.074 340.561 167.779C340.842 168.484 340.499 169.284 339.795 169.566C339.091 169.848 338.292 169.505 338.011 168.799Z" fill="#0F0F0F" style="fill:#0F0F0F;fill:color(display-p3 0.0588 0.0588 0.0588);fill-opacity:1;"/>
<path d="M336.87 187.969C336.588 187.264 336.931 186.464 337.635 186.182C338.339 185.901 339.139 186.244 339.42 186.949C339.702 187.654 339.359 188.454 338.655 188.736C337.951 189.017 337.151 188.674 336.87 187.969Z" fill="#0F0F0F" style="fill:#0F0F0F;fill:color(display-p3 0.0588 0.0588 0.0588);fill-opacity:1;"/>
<path d="M319.563 188.655C319.282 187.95 319.625 187.15 320.329 186.868C321.033 186.586 321.832 186.93 322.114 187.634C322.395 188.339 322.052 189.139 321.348 189.421C320.644 189.704 319.845 189.361 319.563 188.655Z" fill="#0F0F0F" style="fill:#0F0F0F;fill:color(display-p3 0.0588 0.0588 0.0588);fill-opacity:1;"/>
<path d="M308.698 205.479C308.417 204.774 308.759 203.974 309.464 203.692C310.168 203.411 310.967 203.754 311.248 204.459C311.53 205.163 311.187 205.964 310.483 206.245C309.779 206.527 308.979 206.184 308.698 205.479Z" fill="#0F0F0F" style="fill:#0F0F0F;fill:color(display-p3 0.0588 0.0588 0.0588);fill-opacity:1;"/>
<path d="M309.974 205.479C309.88 205.479 309.783 205.453 309.698 205.396C309.461 205.244 309.394 204.928 309.547 204.692L320.413 187.868C320.503 187.729 320.654 187.642 320.82 187.636L337.667 186.967L338.777 168.258C338.794 167.978 339.042 167.768 339.316 167.78C339.596 167.797 339.81 168.038 339.794 168.319L338.656 187.488C338.64 187.75 338.429 187.957 338.167 187.967L321.124 188.643L310.402 205.245C310.305 205.396 310.141 205.479 309.974 205.479Z" fill="#0F0F0F" style="fill:#0F0F0F;fill:color(display-p3 0.0588 0.0588 0.0588);fill-opacity:1;"/>
<path d="M281.849 139.258C280.524 146.269 279.695 160.665 283.542 189.175H318.211C317.585 184.23 315.106 157.857 320.24 132.752C320.24 132.752 314.297 131.558 308.633 131.285C304.204 131.071 297.79 130.93 293.896 131.286C292.27 131.434 290.674 131.669 289.253 131.921C285.503 132.585 282.556 135.513 281.849 139.258Z" fill="#263238" style="fill:#263238;fill:color(display-p3 0.1490 0.1961 0.2196);fill-opacity:1;"/>
<path opacity="0.2" d="M287.3 150.053L280.788 150.573C280.554 159.008 281.134 171.319 283.542 189.17H283.854C287.759 176.313 292.938 157.933 287.3 150.053Z" fill="black" style="fill:black;fill-opacity:1;"/>
<path opacity="0.2" d="M303.838 339.213L304.17 346.958H310.654L310.322 339.213H303.838Z" fill="black" style="fill:black;fill-opacity:1;"/>
<path d="M309.888 111.293C308.223 117.513 307.564 121.239 303.729 123.825C297.961 127.716 290.78 123.251 290.555 116.657C290.353 110.723 293.11 101.547 299.778 100.293C306.349 99.058 311.553 105.072 309.888 111.293Z" fill="#7F3E3B" style="fill:#7F3E3B;fill:color(display-p3 0.4980 0.2431 0.2314);fill-opacity:1;"/>
<path d="M295.341 111.332L291.973 112.209L295.107 104.071C294.767 103.451 293.874 100.623 294.818 97.7946C295.067 97.049 295.751 96.5444 296.536 96.5288C303.517 96.3927 310.813 100.317 314.492 103.282C315.201 103.854 315.374 104.86 314.9 105.637C314.095 106.957 313.052 107.967 311.738 109.305C311.669 111.584 307.953 121.879 305.896 123.034C303.839 124.19 299.906 123.721 298.86 121.842C297.813 119.965 294.276 117.473 295.341 111.332Z" fill="#263238" style="fill:#263238;fill:color(display-p3 0.1490 0.1961 0.2196);fill-opacity:1;"/>
<path d="M298.457 111.462C298.079 113.106 297.046 114.538 295.948 115.404C294.295 116.706 293.003 115.505 293.071 113.59C293.132 111.868 294.065 109.115 295.911 108.555C297.73 108.003 298.89 109.582 298.457 111.462Z" fill="#7F3E3B" style="fill:#7F3E3B;fill:color(display-p3 0.4980 0.2431 0.2314);fill-opacity:1;"/>
<path d="M357.729 352.328C357.723 351.495 357.833 350.691 358.205 350.419C358.335 350.323 358.557 350.248 358.876 350.427C359.055 350.528 359.177 350.691 359.238 350.912C359.539 351.99 358.262 354.266 358.208 354.362C358.176 354.418 358.113 354.448 358.05 354.439C357.987 354.429 357.937 354.381 357.924 354.318C357.838 353.905 357.734 353.104 357.729 352.328ZM358.979 351.292C358.978 351.183 358.967 351.084 358.942 350.995C358.902 350.854 358.832 350.756 358.725 350.695C358.534 350.588 358.44 350.628 358.386 350.667C357.969 350.972 357.969 352.612 358.148 353.818C358.453 353.214 358.984 352.049 358.979 351.292Z" fill="#79F3B6" style="fill:#79F3B6;fill:color(display-p3 0.4745 0.9529 0.7137);fill-opacity:1;"/>
<path d="M357.92 354.287C357.92 354.265 357.924 354.245 357.933 354.224C358.279 353.438 359.671 351.878 360.404 351.992C360.577 352.019 360.792 352.14 360.837 352.562C360.871 352.877 360.785 353.163 360.579 353.416C359.907 354.246 358.162 354.432 358.089 354.44C358.034 354.445 357.981 354.422 357.949 354.377C357.93 354.35 357.92 354.318 357.92 354.287ZM360.538 352.687C360.538 352.656 360.536 352.625 360.533 352.595C360.503 352.318 360.394 352.302 360.358 352.296C359.918 352.227 358.822 353.288 358.348 354.091C358.857 354.005 359.9 353.767 360.341 353.222C360.475 353.058 360.539 352.882 360.538 352.687Z" fill="#79F3B6" style="fill:#79F3B6;fill:color(display-p3 0.4745 0.9529 0.7137);fill-opacity:1;"/>
<path d="M358.019 354.331L351.694 354.779L348.141 339.632L354.466 339.184L358.019 354.331Z" fill="#7F3E3B" style="fill:#7F3E3B;fill:color(display-p3 0.4980 0.2431 0.2314);fill-opacity:1;"/>
<path d="M357.997 352.875L350.946 352.25C350.682 352.227 350.438 352.39 350.358 352.643L348.574 358.276C348.39 358.859 348.792 359.464 349.401 359.508C351.948 359.69 355.638 359.866 358.834 360.149C362.572 360.48 360.151 360.472 364.535 360.86C367.186 361.095 368.158 358.478 367.07 358.136C362.117 356.582 361.221 355.509 359.509 353.516C359.143 353.092 358.554 352.925 357.997 352.875Z" fill="#263238" style="fill:#263238;fill:color(display-p3 0.1490 0.1961 0.2196);fill-opacity:1;"/>
<path opacity="0.2" d="M348.143 339.637L349.972 347.444L356.3 346.996L354.47 339.188L348.143 339.637Z" fill="black" style="fill:black;fill-opacity:1;"/>
<path d="M295.84 189.174C295.84 189.174 310.75 239.018 316.407 257.52C322.602 277.782 346.174 345 346.174 345L357.602 342.485C357.602 342.485 341.456 284.732 334.761 256.476C329.618 234.772 318.211 189.174 318.211 189.174H295.84Z" fill="#79F3B6" style="fill:#79F3B6;fill:color(display-p3 0.4745 0.9529 0.7137);fill-opacity:1;"/>
<path d="M344.168 341.462C344.116 341.468 345.292 345.931 345.292 345.931L359.039 344.453L358.976 340.363L344.168 341.462Z" fill="#263238" style="fill:#263238;fill:color(display-p3 0.1490 0.1961 0.2196);fill-opacity:1;"/>
<path opacity="0.3" d="M304.099 212.273C312.349 213.362 315.634 242.146 316.87 259.038C316.714 258.503 316.549 257.995 316.405 257.516C313.318 247.414 307.472 227.947 302.797 212.365C303.184 212.237 303.625 212.209 304.099 212.273Z" fill="black" style="fill:black;fill-opacity:1;"/>
<path d="M283.543 189.174C283.543 189.174 288.544 237.718 290.698 257.48C292.938 278.036 301.35 345.458 301.35 345.458H312.331C312.331 345.458 311 279.266 310.557 259.051C310.075 237.014 306.333 189.174 306.333 189.174H283.543Z" fill="#79F3B6" style="fill:#79F3B6;fill:color(display-p3 0.4745 0.9529 0.7137);fill-opacity:1;"/>
<path d="M299.639 341.08C299.588 341.08 300.259 345.644 300.259 345.644H313.616L313.977 341.571L299.639 341.08Z" fill="#263238" style="fill:#263238;fill:color(display-p3 0.1490 0.1961 0.2196);fill-opacity:1;"/>
<path d="M236.648 234.847C242.371 243.934 254.372 246.656 263.449 240.927C272.527 235.197 275.247 223.185 269.523 214.098C263.8 205.01 251.801 202.285 242.723 208.014C233.646 213.743 230.926 225.758 236.648 234.847ZM266.923 215.739C271.739 223.388 269.451 233.5 261.81 238.322C254.167 243.146 244.066 240.854 239.25 233.205C234.431 225.553 236.721 215.442 244.363 210.618C252.004 205.796 262.104 208.087 266.923 215.739Z" fill="#263238" style="fill:#263238;fill:color(display-p3 0.1490 0.1961 0.2196);fill-opacity:1;"/>
<path opacity="0.2" d="M267.703 227.787C265.873 235.869 257.844 240.936 249.772 239.104C241.698 237.272 236.636 229.234 238.466 221.152C240.296 213.069 248.324 208.002 256.399 209.833C264.472 211.666 269.534 219.704 267.703 227.787Z" fill="#79F3B6" style="fill:#79F3B6;fill:color(display-p3 0.4745 0.9529 0.7137);fill-opacity:1;"/>
<path d="M270.058 211.738L271.88 214.631C272.156 215.071 272.025 215.651 271.586 215.928C271.147 216.205 270.567 216.074 270.291 215.634L268.469 212.741C268.192 212.302 268.324 211.721 268.763 211.444C269.2 211.167 269.78 211.298 270.058 211.738Z" fill="#263238" style="fill:#263238;fill:color(display-p3 0.1490 0.1961 0.2196);fill-opacity:1;"/>
<path d="M281.842 203.515C279.736 204.954 277.647 206.42 275.583 207.926C273.52 209.434 271.474 210.97 269.49 212.601C269.044 212.966 268.884 213.601 269.139 214.148C269.441 214.795 270.21 215.073 270.856 214.771C273.182 213.681 275.448 212.496 277.696 211.283C279.943 210.067 282.164 208.812 284.37 207.531C286.247 206.438 288.108 205.322 289.959 204.19C290.493 203.864 290.655 203.162 290.322 202.633L288.821 200.251C288.488 199.722 287.786 199.567 287.262 199.907C285.445 201.091 283.637 202.291 281.842 203.515Z" fill="#263238" style="fill:#263238;fill:color(display-p3 0.1490 0.1961 0.2196);fill-opacity:1;"/>
<path d="M291.497 141.687C290.438 146.891 289.3 152.078 288.119 157.252L284.528 172.731C283.366 177.777 282.37 182.896 281.459 188.085L278.734 203.695L278.728 203.73C278.495 205.062 277.229 205.952 275.899 205.72C274.739 205.517 273.915 204.526 273.877 203.394C273.69 197.975 273.773 192.617 274.076 187.223C274.398 181.847 274.895 176.422 275.78 171.027C276.624 165.722 277.573 160.478 278.588 155.239C279.599 150.002 280.699 144.787 281.898 139.595C282.51 136.948 285.148 135.299 287.792 135.91C290.39 136.512 292.025 139.085 291.497 141.687Z" fill="#79F3B6" style="fill:#79F3B6;fill:color(display-p3 0.4745 0.9529 0.7137);fill-opacity:1;"/>
<path d="M277.992 202.284C277.554 201.821 276.895 201.627 276.274 201.776L274.866 202.112C274.144 202.284 273.604 202.884 273.508 203.62L273.1 206.75C272.983 207.647 273.174 208.557 273.641 209.331L275.574 212.534C276.083 213.208 276.936 213.526 277.762 213.351L279.778 212.923C281.041 212.654 281.795 211.35 281.397 210.12L280.869 208.488C280.869 208.488 280.838 205.297 277.992 202.284Z" fill="#7F3E3B" style="fill:#7F3E3B;fill:color(display-p3 0.4980 0.2431 0.2314);fill-opacity:1;"/>
<path d="M298.245 138.677C301.396 147.047 290.496 158.983 290.496 158.983L276.703 154.415C276.703 154.415 277.759 142.996 282.546 136.558C288.46 128.605 295.846 132.307 298.245 138.677Z" fill="#263238" style="fill:#263238;fill:color(display-p3 0.1490 0.1961 0.2196);fill-opacity:1;"/>
</svg>
