<svg width="48" height="48" viewBox="0 0 48 48" fill="none" xmlns="http://www.w3.org/2000/svg">
<g clip-path="url(#clip0_2019_35576)">
<path d="M0 28.5C0 25.246 1.654 22.25 4.362 20.508C4.122 19.36 4 18.182 4 17C4 7.626 11.626 0 21 0C27.842 0 33.906 4 36.604 10.244C43.142 11.478 48 17.29 48 24C48 29.582 44.706 34.39 39.968 36.632C39.976 36.42 40 36.212 40 36C40 35.466 39.972 34.94 39.92 34.418C43.546 32.354 46 28.464 46 24C46 18.084 41.592 12.98 35.748 12.126L35.174 12.042C33.034 6.012 27.412 1.982 21 1.998C12.728 1.998 6 8.726 6 16.998C5.988 18.53 6.258 20.044 6.666 21.506L5.972 21.876C3.52 23.186 1.998 25.722 1.998 28.498C1.998 32.122 4.584 35.152 8.006 35.846C7.98 36.522 8.044 37.198 8.116 37.858C3.536 37.182 0 33.262 0 28.498V28.5ZM28 22C28 24.206 26.206 26 24 26C21.794 26 20 24.206 20 22C20 19.794 21.794 18 24 18C26.206 18 28 19.794 28 22ZM26 22C26 20.898 25.102 20 24 20C22.898 20 22 20.898 22 22C22 23.102 22.898 24 24 24C25.102 24 26 23.102 26 22ZM32.824 30.668L29.792 28.884C28.976 29.564 28.03 30.096 27 30.456V33.998H21V30.456C19.97 30.096 19.024 29.564 18.208 28.884L15.176 30.668L12.134 25.496L15.188 23.702C15.06 23.104 15 22.55 15 22.002C15 21.454 15.06 20.9 15.188 20.302L12.134 18.508L15.176 13.336L18.208 15.12C19.024 14.44 19.97 13.908 21 13.548V10.006H27V13.548C28.03 13.908 28.976 14.44 29.792 15.12L32.824 13.336L35.866 18.508L32.812 20.302C32.94 20.9 33 21.454 33 22.002C33 22.55 32.94 23.104 32.812 23.702L35.866 25.496L32.824 30.668ZM32.114 27.93L33.128 26.206L30.488 24.654C30.74 23.818 31.028 22.756 31.002 22C31.028 21.246 30.74 20.18 30.488 19.346L33.128 17.794L32.114 16.07L29.502 17.606C28.354 16.28 26.764 15.394 25 15.058V12H23V15.058C21.234 15.394 19.646 16.278 18.498 17.606L15.886 16.07L14.872 17.794L17.512 19.346C17.26 20.182 16.972 21.244 16.998 22C16.972 22.754 17.26 23.82 17.512 24.654L14.872 26.206L15.886 27.93L18.498 26.394C19.648 27.722 21.236 28.602 23 28.942V31.998H25V28.942C26.764 28.602 28.352 27.72 29.502 26.394L32.114 27.93ZM48 44C48 46.206 46.206 48 44 48C42.142 48 40.59 46.72 40.142 45H32V36H34V43H40.142C40.59 41.28 42.142 40 44 40C46.206 40 48 41.794 48 44ZM46 44C46 42.896 45.102 42 44 42C42.898 42 42 42.896 42 44C42 45.104 42.898 46 44 46C45.102 46 46 45.104 46 44ZM28 44C28 46.206 26.206 48 24 48C21.794 48 20 46.206 20 44C20 42.142 21.28 40.59 23 40.142V36H25V40.142C26.72 40.59 28 42.142 28 44ZM26 44C26 42.896 25.102 42 24 42C22.898 42 22 42.896 22 44C22 45.104 22.898 46 24 46C25.102 46 26 45.104 26 44ZM14 36H16V45H7.858C7.41 46.72 5.858 48 4 48C1.794 48 0 46.206 0 44C0 41.794 1.794 40 4 40C5.858 40 7.41 41.28 7.858 43H14V36ZM6 44C6 42.896 5.102 42 4 42C2.898 42 2 42.896 2 44C2 45.104 2.898 46 4 46C5.102 46 6 45.104 6 44Z" fill="white" style="fill:white;fill-opacity:1;"/>
</g>
<defs>
<clipPath id="clip0_2019_35576">
<rect width="48" height="48" fill="white" style="fill:white;fill-opacity:1;"/>
</clipPath>
</defs>
</svg>
