<svg width="48" height="48" viewBox="0 0 48 48" fill="none" xmlns="http://www.w3.org/2000/svg">
<g clip-path="url(#clip0_2019_35522)">
<path d="M48 13.8544V39.9984H25V45.9984H35V47.9984H13V45.9984H23V39.9984H0V8.99841C0 6.24041 2.244 3.99841 5 3.99841H30.96C30.454 4.58841 29.88 5.26041 29.248 5.99841H5C3.346 5.99841 2 7.34441 2 8.99841V37.9984H46V16.0124L48 13.8544ZM22.502 20.0424C38.116 1.78041 38.186 1.70841 38.22 1.67441C40.456 -0.555592 44.092 -0.551592 46.324 1.67841C48.552 3.91241 48.552 7.55041 46.324 9.78241L29.954 27.4384C29.722 31.0904 26.708 34.0004 22.998 34.0004H11.818L12.012 32.8364C12.098 32.3224 14.184 20.5164 22.5 20.0444L22.502 20.0424ZM28 26.9984C28 24.2404 25.756 21.9984 23 21.9984C17.332 21.9984 14.964 29.1364 14.244 31.9984H23C25.756 31.9984 28 29.7564 28 26.9984ZM29.628 24.8524L33.76 20.3944C33.096 18.0224 31.018 16.2804 28.548 16.0504C27.266 17.5484 26.026 19.0004 24.914 20.3004C27.148 20.9424 28.91 22.6524 29.628 24.8544V24.8524ZM30.044 14.3004C32.368 14.9264 34.294 16.5684 35.278 18.7584L44.884 8.39841C46.358 6.91641 46.358 4.54841 44.908 3.09241C43.46 1.64241 41.092 1.63841 39.634 3.09241C39.496 3.25241 34.764 8.78441 30.044 14.3044V14.3004Z" fill="white" style="fill:white;fill-opacity:1;"/>
</g>
<defs>
<clipPath id="clip0_2019_35522">
<rect width="48" height="48" fill="white" style="fill:white;fill-opacity:1;"/>
</clipPath>
</defs>
</svg>
