<svg width="397" height="272" viewBox="0 0 397 272" fill="none" xmlns="http://www.w3.org/2000/svg">
<path d="M393.819 237.809L263.086 237.325C253.874 237.29 255.609 237.644 262.69 232.37L277.862 221.071C282.263 217.794 281.279 218.424 286.806 218.587L317.323 219.488C322.811 219.651 321.543 219.05 323.179 224.471C325 230.51 323.784 231.234 328.347 227.675L337.321 220.676C341.604 217.335 340.322 217.838 338.983 212.176L320.634 134.582C318.868 127.114 320.451 126.878 314.153 130.195L307.773 133.556C301.683 136.763 303.135 135.8 304.882 142.979L307.532 153.87C309.587 162.317 308.758 162.646 311.739 154.344L318.72 134.905C321.408 127.418 321.4 125.185 321.952 117.258L326.372 53.8376C327.106 43.2946 328.584 44.354 318.834 48.4416L292.406 59.5209C282.375 63.7259 284.826 62.6038 283.267 73.845L265.118 204.68C263.622 215.47 262.586 214.358 271.732 208.347L311.351 182.308C314.513 180.23 314.945 171.459 313.795 167.629C312.893 164.622 311.523 165.337 311.894 168.773C312.59 175.223 316.528 190.207 316.528 190.207L325.562 222.396C326.795 226.788 326.363 225.782 323.212 229.365L317.203 236.197C312.056 242.05 314.134 241.114 306.422 241.168L220.213 241.775C214.307 241.817 216.873 241.391 221.062 238.481L258.728 212.316C266.64 206.821 258.277 208.675 256.923 209.672C254.326 211.585 227.454 230.683 217.003 238.107C211.442 242.059 213.18 241.037 206.09 241.061L162.82 241.207C162.019 241.21 158.803 241.584 160.499 243.101C160.902 243.462 161.629 243.539 161.629 243.539M161.293 243.494C161.293 243.494 162.143 243.579 163.504 243.92C178.176 247.587 169.347 249.676 159.695 250.279C156.975 250.449 146.157 250.804 140.461 250.294C134.764 249.784 133.318 254.205 136.804 255.31C140.291 256.414 144.967 255.989 149.133 255.225C153.3 254.459 156.106 254.8 161.548 255.14C164.497 255.324 167.271 255.558 169.336 255.261C171.542 254.943 178.753 250.725 167.67 252.717C163.886 253.397 142.367 252.818 137.691 252.563C133.014 252.308 134.892 248.17 138.463 246.215C142.034 244.26 148.751 245.365 145.945 247.49C143.139 249.615 140.844 244.685 145.18 243.665C148.259 242.94 152.806 242.536 155.184 242.363C157.02 242.229 158.155 242.302 158.584 239.923C158.966 237.798 161.667 236.789 163.581 235.812C165.494 234.834 180.246 227.099 182.797 224.889C185.348 222.679 186.283 221.234 181.521 221.914C178.218 222.385 172.377 223.226 168.116 223.213C159.771 223.189 156.737 206.671 167.279 205.225C172.452 204.516 180.405 204.312 183.818 202.363C198.423 194.02 205.723 209.42 201.843 207.293C199.207 205.848 193.766 202.023 192.745 203.383C191.725 204.743 196.062 206.273 198.867 207.718C201.673 209.163 205.67 210.608 207.2 211.543C208.731 212.478 212.302 214.094 210.261 215.114C208.221 216.134 205.633 214.034 201.211 211.484C196.79 208.934 194.19 207.549 193.68 208.484C193.17 209.419 196.486 211.119 198.867 212.309C201.248 213.498 203.629 215.284 205.499 216.134C207.37 216.984 210.431 218.089 209.156 219.279C207.88 220.469 204.819 219.364 200.228 216.729C195.636 214.093 191.725 211.968 191.81 213.498C191.895 215.028 194.69 217.188 198.261 218.463C201.832 219.737 202.778 220.213 202.523 220.894C202.268 221.573 202.949 221.999 196.741 221.489C190.534 220.979 185.263 223.104 185.858 217.154C186.453 211.203 187.048 211.118 185.688 207.718C184.327 204.318 185.263 200.833 186.708 198.028C195.068 181.806 198.744 190.597 211.536 190.973C217.318 191.143 220.039 194.373 225.991 197.603C231.943 200.833 250.137 199.478 255.324 199.478C259.818 199.478 270.354 199.64 258.47 200.753C255.749 201.008 247.586 201.603 243.59 201.603C239.594 201.603 233.712 201.284 235.327 202.814C236.943 204.345 238.404 205.173 237.638 206.534C236.873 207.894 233.982 207.469 232.706 206.278C231.432 205.088 228.625 200.838 228.285 202.878C227.945 204.918 230.071 206.959 232.197 208.573C234.322 210.189 234.407 212.314 231.686 210.528C228.966 208.743 228.625 207.808 224.204 203.133C215.305 193.724 208.615 193.03 222.333 204.578C225.564 207.298 226.925 208.658 226.84 210.103C226.754 211.548 225.905 212.653 222.758 210.273C219.612 207.893 210.939 202.878 208.134 202.793C205.328 202.708 200.906 198.288 203.074 198.458C205.242 198.628 208.378 202.321 205.529 202.491C202.681 202.661 201.543 200.37 199.588 199.01C197.632 197.651 194.826 196.715 191.85 197.65C183.655 200.225 167.804 200.122 156.439 196.967C124.43 188.082 171.12 196.798 171.188 196.8C175.95 196.97 182.889 198.163 185.185 194.933C189.574 188.758 196.566 185.115 192.793 183.165C190.327 181.889 168.212 171.98 164.472 170.11C128.107 151.933 143.812 144.579 121.787 115.028C108.661 97.4174 100.347 97.5996 111.924 115.538C115.325 120.808 119.746 132.538 121.277 139.509C122.807 146.479 127.91 153.789 127.91 162.629C127.91 171.469 125.358 174.869 127.909 179.97C130.46 185.07 135.052 188.47 134.541 185.75C134.273 184.321 125.578 176.024 125.361 188.388C125.257 194.308 124.685 200.494 126.719 201.22C128.515 201.861 144.056 205.306 150.996 205.281C156.013 205.264 154.9 202.997 150.986 202.289C144.067 201.039 128.222 202.603 120.937 201.389C87.6065 195.836 82.092 169.061 70.5996 139.253C67.4535 131.093 59.6309 106.782 48.5769 106.952C25.569 107.306 52.8321 98.9706 57.0797 88.592C60.1408 81.1116 66.263 78.0518 68.3033 87.9119C70.3439 97.7723 73.0651 116.473 80.2073 117.492C90.2578 118.928 87.9905 92.4866 94.1522 121.233C95.0626 125.481 103.083 172.25 105.16 184.434C106.206 190.573 108.974 190.963 107.672 183.45C105.277 169.633 96.6662 120.293 96.4458 118.602M94.6366 104.788C94.1256 105.037 93.4373 105.014 92.7545 104.892C84.0338 103.327 79.0286 96.2861 73.3184 90.2102C62.8853 79.1076 74.9999 69.3708 67.9618 67.4298C40.2146 59.7779 47.8752 22.0428 69.1523 8.60897C72.6726 6.38654 75.5366 4.8196 78.047 3.99118C80.1454 3.29869 81.9968 3.12194 83.7775 3.50888C86.2082 4.03722 80.6246 5.55073 75.8458 8.253C64.2403 14.8162 72.3192 30.4785 74.1687 42.0995C74.7641 45.8396 73.0635 45.4998 70.9376 43.3746C62.6224 35.0617 56.9892 60.717 65.9209 62.6701C76.2213 64.9227 75.4848 47.6778 71.8727 46.2649C69.9171 45.4998 70.257 43.2047 69.4916 39.2098C65.18 16.6985 64.6134 0.419117 94.9151 3.33898C109.03 4.69902 120.083 18.9793 120.934 23.2296C121.785 27.4797 120.254 26.4597 116.343 23.3995C98.1613 9.17513 95.5009 35.6268 85.9022 40.5699C80.2901 43.4598 75.5284 49.2401 76.5489 59.2701C78.6813 80.2361 105.461 98.5039 116.257 69.9806C118.399 64.3217 120.468 60.5255 123.699 67.8031C125.228 71.2463 125.278 75.2059 122.889 76.6109C119.998 78.3107 115.747 80.3509 119.148 80.691C122.549 81.0311 124.657 75.2481 122.039 69.6407C119.422 64.0334 119.488 61.9907 119.488 58.2504C119.488 36.7714 122.161 7.49584 91.2589 7.41938C58.1951 7.33744 41.0317 47.3457 60.564 61.9907C61.9245 63.0107 64.7301 64.1159 65.4955 64.6259C66.2606 65.1359 70.172 73.8061 65.2406 77.3763C55.1904 84.6517 42.3363 72.2046 41.9424 59.6107C41.7724 54.1706 46.7041 46.0106 48.2348 48.9006C49.765 51.7906 46.0238 59.1008 54.0166 63.6909C66.7236 70.9885 67.0056 75.4621 59.9684 89.5317C51.777 105.909 32.126 101.011 28.8486 125.913C27.148 138.833 37.3516 158.554 44.8338 172.154C52.316 185.754 73.743 218.055 87.0078 223.155C94.3592 225.982 109.755 227.503 121.847 227.863C144.188 228.529 143.857 225.209 121.829 224.875C84.0856 224.302 69.68 231.985 36.3311 251.035C31.5696 253.756 23.0666 260.896 21.026 253.075C18.9854 245.255 20.0054 212.954 14.5638 191.874C9.06495 170.573 -5.66528 137.059 12.736 120.053C21.7193 111.75 33.5564 104.145 29.1888 113.672C27.3182 117.752 26.2977 129.822 26.978 135.093C27.6584 140.363 34.2905 182.354 35.651 193.574C37.0117 204.794 31.7395 220.775 32.0797 233.015C32.6008 251.768 37.8662 253.839 21.0696 261.036C13.0836 264.457 3 268.715 3 268.715M96.4705 118.77C96.34 117.714 95.5831 114.062 95.5831 110.747C95.5831 107.432 96.2756 104.067 98.5713 108.062C100.867 112.058 100.442 116.392 103.333 115.883C106.224 115.373 106.989 114.183 105.714 110.867C104.775 108.427 102.684 103.314 100.798 99.5992C100.199 98.4195 92.6821 84.6171 96.4458 86.8119C98.4861 88.0017 99.1665 95.142 97.2959 99.8171C95.4255 104.492 96.5308 103.727 94.405 104.917" stroke="white" stroke-opacity="0.4" style="stroke:white;stroke-opacity:0.4;" stroke-width="1.5" stroke-miterlimit="2.6131"/>
<path d="M393.819 237.809L263.087 237.325C253.874 237.291 255.609 237.645 262.691 232.371M317.323 219.489C322.811 219.651 321.544 219.05 323.179 224.472C325.001 230.51 323.784 231.235 328.347 227.676L337.321 220.677C341.605 217.336 340.322 217.839 338.983 212.177M314.153 130.196L307.774 133.556C301.684 136.764 303.136 135.801 304.883 142.979L307.533 153.871C309.588 162.318 308.759 162.647 311.74 154.345L318.72 134.906C321.409 127.419 321.4 125.186 321.953 117.258L326.372 53.8384M283.268 73.8458L265.118 204.681C263.622 215.471 262.587 214.359 271.732 208.348L311.352 182.309C314.513 180.231 314.946 171.46 313.796 167.629C312.893 164.623 311.524 165.338 311.895 168.774M325.563 222.397C326.795 226.789 326.363 225.783 323.212 229.365M220.214 241.776C214.308 241.818 216.873 241.392 221.062 238.482M206.091 241.062L162.821 241.208C162.019 241.21 158.803 241.584 160.499 243.101C160.903 243.463 161.63 243.54 161.63 243.54M161.294 243.495C161.294 243.495 162.144 243.58 163.504 243.92C178.177 247.588 169.347 249.676 159.696 250.28M161.548 255.14C164.497 255.325 167.272 255.559 169.337 255.261C171.542 254.943 178.754 250.726 167.671 252.718M158.584 239.923C158.967 237.798 161.668 236.79 163.581 235.812C165.495 234.835 180.247 227.1 182.798 224.89C185.349 222.679 186.284 221.234 181.522 221.915M186.709 198.029C195.068 181.807 198.745 190.598 211.537 190.974C217.319 191.144 220.04 194.374 225.992 197.604C231.944 200.834 250.138 199.479 255.324 199.479C259.818 199.479 270.355 199.64 258.47 200.754C255.75 201.009 247.587 201.604 243.591 201.604C239.594 201.604 233.712 201.285 235.328 202.815C236.943 204.345 238.404 205.174 237.639 206.534C236.873 207.894 233.983 207.469 232.707 206.279C231.432 205.089 228.626 200.839 228.286 202.879C227.946 204.919 230.071 206.959 232.197 208.574C234.323 210.189 234.408 212.314 231.687 210.529C228.966 208.744 228.626 207.809 224.205 203.134C215.306 193.724 208.615 193.03 222.334 204.579C225.565 207.299 226.925 208.659 226.84 210.104C226.755 211.549 225.905 212.654 222.759 210.274C219.613 207.894 210.94 202.879 208.134 202.794C205.328 202.709 200.907 198.289 203.075 198.459C205.243 198.629 208.378 202.322 205.53 202.492C202.681 202.662 201.544 200.371 199.589 199.011C197.633 197.651 194.827 196.716 191.851 197.651C183.656 200.226 167.805 200.123 156.439 196.968C124.431 188.083 171.121 196.799 171.189 196.801C175.95 196.971 182.89 198.164 185.186 194.934C189.575 188.758 196.566 185.116 192.794 183.165M121.787 115.029C108.662 97.4182 100.347 97.6004 111.924 115.539C115.325 120.809 119.747 132.539 121.278 139.509C122.808 146.479 127.91 153.79 127.91 162.63C127.91 171.47 125.359 174.87 127.91 179.97C130.461 185.07 135.052 188.47 134.542 185.75C134.274 184.322 125.579 176.025 125.362 188.389C125.258 194.309 124.685 200.495 126.719 201.22C128.516 201.862 144.057 205.306 150.996 205.282C156.014 205.265 154.901 202.997 150.987 202.29C144.067 201.04 128.222 202.604 120.938 201.39M48.5775 106.953C25.5696 107.307 52.8327 98.9714 57.0803 88.5928C60.1414 81.1124 66.2636 78.0525 68.3039 87.9127M94.6372 104.789C94.1262 105.037 93.4379 105.015 92.7551 104.893C84.0344 103.328 79.0292 96.2869 73.319 90.211C62.8859 79.1084 75.0005 69.3716 67.9624 67.4306M74.1693 42.1003C74.7647 45.8404 73.0641 45.5006 70.9382 43.3754C62.623 35.0625 56.9898 60.7178 65.9215 62.6709C76.2219 64.9235 75.4854 47.6786 71.8733 46.2657C69.9177 45.5006 70.2576 43.2055 69.4922 39.2106M120.934 23.2304C121.785 27.4805 120.254 26.4605 116.343 23.4003C98.1619 9.17593 95.5015 35.6276 85.9029 40.5707C80.2908 43.4606 75.529 49.2409 76.5495 59.2709C78.6819 80.2369 105.462 98.5047 116.258 69.9814M60.5646 61.9915C61.9251 63.0115 64.7307 64.1167 65.4961 64.6267C66.2612 65.1367 70.1726 73.8069 65.2412 77.377C55.191 84.6524 42.3369 72.2054 41.943 59.6115C41.773 54.1714 46.7047 46.0114 48.2354 48.9014C49.7656 51.7914 46.0244 59.1015 54.0172 63.6917C66.7242 70.9893 67.0062 75.4629 59.969 89.5325C51.7776 105.91 32.1266 101.012 28.8492 125.914C27.1486 138.834 37.3522 158.554 44.8344 172.155M121.83 224.876C84.0862 224.303 69.6806 231.985 36.3317 251.036C31.5702 253.756 23.0672 260.896 21.0266 253.076C18.986 245.256 20.0061 212.955 14.5645 191.875M29.1894 113.673C27.3188 117.753 26.2983 129.823 26.9786 135.094M32.0803 233.016C32.6014 251.769 37.8668 253.84 21.0702 261.037M96.4711 118.771C96.3406 117.715 95.5837 114.063 95.5837 110.748C95.5837 107.433 96.2762 104.068 98.572 108.063M105.714 110.868C104.775 108.428 102.684 103.315 100.798 99.6M97.2965 99.8179C95.4261 104.493 96.5314 103.728 94.4056 104.918" stroke="#79F3B6" style="stroke:#79F3B6;stroke:color(display-p3 0.4745 0.9529 0.7137);stroke-opacity:1;" stroke-miterlimit="2.6131"/>
</svg>
