<svg width="48" height="48" viewBox="0 0 48 48" fill="none" xmlns="http://www.w3.org/2000/svg">
<g clip-path="url(#clip0_2019_35554)">
<path d="M9.708 35.618L8.294 34.204L17.806 24.692C18.186 24.312 18.186 23.69 17.806 23.31L8.292 13.796L9.706 12.382L19.218 21.894C20.378 23.054 20.378 24.944 19.218 26.104L9.706 35.616L9.708 35.618ZM48 5C48 2.242 45.758 0 43 0H5C2.242 0 0 2.242 0 5V48H48V5ZM2 5C2 3.346 3.346 2 5 2H43C44.654 2 46 3.346 46 5V46H2V5ZM40 34H24V36H40V34Z" fill="white" style="fill:white;fill-opacity:1;"/>
</g>
<defs>
<clipPath id="clip0_2019_35554">
<rect width="48" height="48" fill="white" style="fill:white;fill-opacity:1;"/>
</clipPath>
</defs>
</svg>
